<?xml version="1.0" encoding="UTF-8" standalone="no"?>
<svg
   xmlns:dc="http://purl.org/dc/elements/1.1/"
   xmlns:cc="http://creativecommons.org/ns#"
   xmlns:rdf="http://www.w3.org/1999/02/22-rdf-syntax-ns#"
   xmlns:svg="http://www.w3.org/2000/svg"
   xmlns="http://www.w3.org/2000/svg"
   xmlns:sodipodi="http://sodipodi.sourceforge.net/DTD/sodipodi-0.dtd"
   xmlns:inkscape="http://www.inkscape.org/namespaces/inkscape"
   version="1.1"
   id="svg2"
   xml:space="preserve"
   width="224.444"
   height="246.77733"
   viewBox="0 0 224.444 246.77733"
   sodipodi:docname="Beyond CMJN.ai"><metadata
     id="metadata8"><rdf:RDF><cc:Work
         rdf:about=""><dc:format>image/svg+xml</dc:format><dc:type
           rdf:resource="http://purl.org/dc/dcmitype/StillImage" /></cc:Work></rdf:RDF></metadata><defs
     id="defs6"><clipPath
       clipPathUnits="userSpaceOnUse"
       id="clipPath18"><path
         d="M 0,185.083 H 168.333 V 0 H 0 Z"
         id="path16" /></clipPath><clipPath
       clipPathUnits="userSpaceOnUse"
       id="clipPath26"><path
         d="m 10.95,172.685 h 93.561 V 39.7337 H 10.95 Z"
         id="path24" /></clipPath><clipPath
       clipPathUnits="userSpaceOnUse"
       id="clipPath42"><path
         d="M 55.2106,181.606 H 164.286 V 42.1573 H 55.2106 Z"
         id="path40" /></clipPath><clipPath
       clipPathUnits="userSpaceOnUse"
       id="clipPath62"><path
         d="M 3.36288,32.9926 H 165.101 V 1.81908 H 3.36288 Z"
         id="path60" /></clipPath></defs><sodipodi:namedview
     pagecolor="#ffffff"
     bordercolor="#666666"
     borderopacity="1"
     objecttolerance="10"
     gridtolerance="10"
     guidetolerance="10"
     inkscape:pageopacity="0"
     inkscape:pageshadow="2"
     inkscape:window-width="640"
     inkscape:window-height="480"
     id="namedview4" /><g
     id="g10"
     inkscape:groupmode="layer"
     inkscape:label="Beyond CMJN"
     transform="matrix(1.3333333,0,0,-1.3333333,0,246.77733)"><g
       id="g12"><g
         id="g14"
         clip-path="url(#clipPath18)"><g
           id="g20"><g
             id="g22" /><g
             id="g34"><g
               clip-path="url(#clipPath26)"
               opacity="0.820007"
               id="g32"><g
                 transform="translate(102.2634,170.9053)"
                 id="g30"><path
                   d="m 0,0 c -14.899,-11.8 -29.732,-23.661 -44.411,-35.493 l -44.92,-36.158 0.165,1.376 45.205,-56.655 -2.755,-0.445 c 7.453,21.304 14.88,42.343 22.58,63.212 7.69,20.872 15.66,41.741 23.622,62.805 z m 2.247,1.78 c -7.323,-21.43 -14.642,-43.044 -22.231,-64.655 -7.737,-22.061 -15.747,-43.952 -23.731,-65.579 l -1.003,-2.717 -1.753,2.273 -44.239,57.412 -0.603,0.783 0.768,0.593 46.113,35.598 c 15.305,11.795 30.453,23.557 45.528,35.388 z"
                   style="fill:#58c0dc;fill-opacity:1;fill-rule:nonzero;stroke:none"
                   id="path28" /></g></g></g></g><g
           id="g36"><g
             id="g38" /><g
             id="g50"><g
               clip-path="url(#clipPath42)"
               opacity="0.830002"
               id="g48"><g
                 transform="translate(57.5143,43.2988)"
                 id="g46"><path
                   d="m 0,0 c 12.661,6.268 25.294,12.583 37.82,18.906 l 38.545,19.42 -0.318,-0.381 26.348,94.728 2.283,-1.168 C 87.494,109.39 70.431,87.507 53.167,65.888 35.909,44.264 18.384,22.73 0.818,1.011 Z m -2.304,-1.142 c 17.106,22.247 34.253,44.671 51.661,67.005 17.663,22.674 35.526,45.083 53.268,67.261 l 4.147,5.183 -1.864,-6.352 L 77.225,37.609 77.147,37.344 76.907,37.228 37.689,18.308 C 24.667,12.038 11.753,5.766 -1.127,-0.563 Z"
                   style="fill:#58c0dc;fill-opacity:1;fill-rule:nonzero;stroke:none"
                   id="path44" /></g></g></g></g><g
           id="g52"
           transform="translate(59.8088,45.0498)"><path
             d="m 0,0 83.165,87.295 0.739,-1.1 -135.862,-55.009 0.263,2.637 C -34.714,22.897 -17.963,11.934 -1.19,0.791 Z M -1.991,-2.066 C -19.165,8.942 -36.357,20.109 -53.327,31.322 l -2.407,1.591 2.671,1.047 136.465,53.495 2.931,1.149 -2.191,-2.25 -85.125,-87.387 z"
             style="fill:#58c0dc;fill-opacity:1;fill-rule:nonzero;stroke:none"
             id="path54" /></g><g
           id="g56"><g
             id="g58" /><g
             id="g90"><g
               clip-path="url(#clipPath62)"
               opacity="0.830002"
               id="g88"><g
                 transform="translate(6.2682,16.8511)"
                 id="g66"><path
                   d="m 0,0 v -11.379 h 3.678 c 2.17,0 3.759,0.212 4.77,0.634 1.011,0.424 1.823,1.086 2.436,1.989 0.613,0.9 0.92,1.876 0.92,2.924 0,1.319 -0.431,2.469 -1.293,3.451 C 9.649,-1.399 8.464,-0.727 6.956,-0.363 5.944,-0.121 4.186,0 1.678,0 Z M 0,12.489 V 2.986 h 1.698 c 2.063,0 3.579,0.192 4.55,0.575 0.97,0.383 1.739,0.989 2.305,1.816 0.567,0.827 0.849,1.746 0.849,2.754 0,1.359 -0.475,2.425 -1.425,3.198 -0.95,0.774 -2.464,1.16 -4.54,1.16 z m -2.905,2.906 h 5.851 c 2.353,0 4.163,-0.279 5.428,-0.837 1.264,-0.559 2.262,-1.416 2.996,-2.573 0.733,-1.157 1.099,-2.441 1.099,-3.854 0,-1.318 -0.321,-2.519 -0.963,-3.601 C 10.863,3.447 9.919,2.569 8.675,1.896 c 1.542,-0.524 2.728,-1.14 3.56,-1.846 0.831,-0.706 1.478,-1.56 1.941,-2.562 0.463,-1.002 0.694,-2.088 0.694,-3.259 0,-2.381 -0.87,-4.396 -2.613,-6.043 -1.742,-1.647 -4.079,-2.472 -7.011,-2.472 h -8.151 z"
                   style="fill:#58c0dc;fill-opacity:1;fill-rule:nonzero;stroke:none"
                   id="path64" /></g><g
                 transform="translate(27.0304,32.2461)"
                 id="g70"><path
                   d="M 0,0 H 17.009 V -2.906 H 2.966 v -9.301 h 13.922 v -2.906 H 2.966 v -11.661 h 13.922 v -2.907 H 0 Z"
                   style="fill:#58c0dc;fill-opacity:1;fill-rule:nonzero;stroke:none"
                   id="path68" /></g><g
                 transform="translate(46.8234,32.2461)"
                 id="g74"><path
                   d="M 0,0 H 3.413 L 11.008,-12.241 18.482,0 h 3.431 L 12.51,-15.496 V -29.681 H 9.584 v 14.185 z"
                   style="fill:#58c0dc;fill-opacity:1;fill-rule:nonzero;stroke:none"
                   id="path72" /></g><g
                 transform="translate(87.884,30.1074)"
                 id="g78"><path
                   d="m 0,0 c -2.196,0 -4.278,-0.572 -6.245,-1.717 -1.967,-1.144 -3.503,-2.685 -4.608,-4.624 -1.105,-1.938 -1.657,-4.099 -1.657,-6.482 0,-3.527 1.223,-6.505 3.668,-8.935 2.446,-2.43 5.393,-3.645 8.842,-3.645 2.304,0 4.436,0.558 6.396,1.675 1.96,1.119 3.489,2.646 4.587,4.584 1.099,1.939 1.648,4.093 1.648,6.463 0,2.355 -0.549,4.486 -1.648,6.39 -1.098,1.905 -2.644,3.43 -4.637,4.574 C 4.352,-0.572 2.236,0 0,0 m -0.131,2.885 c 4.495,0 8.257,-1.5 11.285,-4.499 3.029,-3 4.544,-6.693 4.544,-11.077 0,-4.345 -1.511,-8.031 -4.533,-11.057 -3.022,-3.027 -6.707,-4.54 -11.054,-4.54 -4.402,0 -8.117,1.506 -11.145,4.519 -3.029,3.013 -4.543,6.659 -4.543,10.936 0,2.852 0.69,5.495 2.07,7.93 1.38,2.434 3.26,4.341 5.643,5.72 2.382,1.379 4.96,2.068 7.733,2.068"
                   style="fill:#58c0dc;fill-opacity:1;fill-rule:nonzero;stroke:none"
                   id="path76" /></g><g
                 transform="translate(109.5539,2.5654)"
                 id="g82"><path
                   d="M 0,0 V 29.681 H 0.646 L 20.398,6.929 v 22.752 h 2.927 V 0 H 22.659 L 3.067,22.475 V 0 Z"
                   style="fill:#58c0dc;fill-opacity:1;fill-rule:nonzero;stroke:none"
                   id="path80" /></g><g
                 transform="translate(142.9465,5.3701)"
                 id="g86"><path
                   d="m 0,0 h 3.431 c 4.102,0 6.946,0.256 8.534,0.767 2.233,0.725 3.988,2.032 5.266,3.92 1.278,1.889 1.917,4.197 1.917,6.925 0,2.863 -0.693,5.309 -2.078,7.339 -1.386,2.029 -3.316,3.42 -5.791,4.173 -1.856,0.564 -4.916,0.846 -9.18,0.846 L 0,23.97 Z m -2.845,-2.805 v 29.681 h 6.154 c 4.439,0 7.66,-0.356 9.665,-1.069 2.879,-1.009 5.128,-2.758 6.749,-5.246 1.621,-2.489 2.432,-5.455 2.432,-8.898 0,-2.974 -0.643,-5.59 -1.927,-7.85 C 18.943,1.554 17.274,-0.114 15.224,-1.19 13.172,-2.267 10.297,-2.805 6.598,-2.805 Z"
                   style="fill:#58c0dc;fill-opacity:1;fill-rule:nonzero;stroke:none"
                   id="path84" /></g></g></g></g></g></g></g></svg>
